# xmcd CD database file
#
# Track frame offsets:
#	150
#	19840
#	36795
#
# Disc length: 843 seconds
#
# Revision: 0
# Processed by: cddbd v1.5.1PL0 Copyright (c) Steve Scherf et al.
# Submitted via: CDex 1.51
#
DISCID=1b034903
DTITLE=FAKE? - JUST LIKE BILLY
DYEAR=2004
DGENRE=Rock
TTITLE0=JUST LIKE BILLY
TTITLE1=CANDY
TTITLE2=ESCAPE FROM THE AUDIO MESS - Till Doom Mix_
EXTD=YEAR: 2004
EXTT0=
EXTT1=
EXTT2=
PLAYORDER=
